<?xml version='1.0' encoding='utf-8'?>
<svg xmlns="http://www.w3.org/2000/svg" version="1.0" width="151.000000pt" height="124.000000pt" viewBox="0 0 151.000000 124.000000" preserveAspectRatio="xMidYMid meet"> <metadata> Created by potrace 1.10, written by Peter Selinger 2001-2011 </metadata> <g transform="translate(0.000000,124.000000) scale(0.050000,-0.050000)" fill="#fffff" stroke="none"> <path d="M360 1884 l0 -175 510 -510 510 -510 0 -242 0 -241 72 -74 c135 -139 228 -9 226 316 l-2 238 497 498 c587 588 500 470 513 691 12 207 5 216 -86 110 -59 -69 -567 -586 -927 -943 l-150 -148 -556 565 c-306 311 -560 573 -564 583 -23 64 -43 -7 -43 -158z"/> <path d="M480 1411 c0 -83 17 -103 378 -460 l262 -259 0 -112 c0 -108 3 -115 101 -211 l102 -99 -14 200 -13 200 -383 384 c-210 211 -385 393 -389 405 -16 47 -44 17 -44 -48z"/> <path d="M2480 1405 c-36 -41 -218 -229 -403 -416 l-337 -342 0 -188 0 -187 100 98 c96 95 100 103 100 210 l0 111 310 308 c304 303 310 310 310 395 0 104 2 104 -80 11z"/> <path d="M1600 1385 c-77 -8 -240 -148 -240 -205 0 -18 36 -67 80 -110 l81 -79 90 91 91 90 -45 57 c-44 56 -21 111 47 111 9 0 16 14 16 30 0 17 -11 29 -25 27 -14 -2 -56 -7 -95 -12z"/> </g> </svg>
