<?xml version="1.0" standalone="no"?>
<!DOCTYPE svg PUBLIC "-//W3C//DTD SVG 20010904//EN"
 "http://www.w3.org/TR/2001/REC-SVG-20010904/DTD/svg10.dtd">
<svg version="1.0" xmlns="http://www.w3.org/2000/svg"
 width="1280.000000pt" height="780.000000pt" viewBox="0 0 1280.000000 780.000000"
 preserveAspectRatio="xMidYMid meet">

<g transform="translate(0.000000, 780.000000) scale(0.100000,-0.100000)"
fill="#ffffff" stroke="none">
<path d="M2215 8365 c-39 -21 -119 -51 -170 -64 -22 -5 -74 -19 -115 -31 -41
-11 -91 -25 -110 -30 -74 -18 -141 -45 -265 -108 -66 -33 -87 -46 -200 -123
-59 -40 -251 -232 -290 -290 -16 -24 -32 -46 -35 -49 -27 -26 -97 -156 -165
-305 -13 -31 -41 -120 -71 -235 -26 -96 -26 -450 -1 -535 10 -33 27 -91 39
-130 11 -38 50 -131 86 -205 43 -88 66 -147 66 -170 0 -29 -45 -136 -115 -272
-19 -38 -49 -141 -69 -238 -19 -89 -21 -127 -18 -284 3 -100 10 -203 17 -231
7 -27 22 -86 33 -130 26 -104 41 -144 103 -275 65 -138 185 -302 274 -374 13
-11 31 -27 40 -36 18 -19 192 -139 233 -161 170 -91 417 -199 454 -199 8 0 24
-5 35 -11 27 -14 170 -41 246 -46 44 -3 76 0 107 12 67 26 78 42 74 111 -3 59
-3 59 -43 73 -25 8 -117 17 -241 22 -135 6 -216 13 -245 23 -24 9 -52 16 -62
16 -38 0 -255 100 -308 142 -20 15 -41 28 -46 28 -4 0 -37 25 -73 56 -243 208
-392 469 -451 789 -19 102 -16 343 5 435 24 108 45 181 62 213 8 16 14 34 14
40 0 7 8 28 18 47 11 19 22 46 25 60 3 14 15 30 25 37 16 9 24 6 49 -18 135
-126 298 -242 425 -303 92 -45 228 -95 283 -106 22 -4 60 -13 85 -21 33 -10
107 -14 275 -14 191 0 242 3 300 18 94 25 207 59 225 68 8 4 38 17 65 29 28
12 95 44 150 71 55 27 105 49 112 49 6 0 30 9 54 20 29 13 66 20 109 20 137 0
192 -83 255 -385 15 -76 27 -124 44 -190 14 -50 51 -105 72 -105 28 0 58 77
69 173 5 43 11 81 14 85 2 4 9 43 15 86 20 144 70 252 137 298 70 48 185 37
339 -33 33 -15 101 -46 150 -69 50 -23 99 -45 110 -50 26 -12 123 -43 200 -64
170 -47 490 -47 660 0 137 37 301 101 336 131 8 7 21 13 27 13 6 0 17 6 24 13
7 6 38 28 68 48 56 37 99 71 204 163 115 100 122 98 189 -69 50 -123 72 -215
87 -365 36 -364 -107 -757 -370 -1020 -99 -100 -125 -122 -200 -171 -62 -41
-194 -109 -211 -109 -6 0 -25 -6 -42 -14 -77 -35 -196 -56 -319 -57 -266 -1
-355 -23 -372 -91 -15 -60 5 -93 73 -119 43 -16 70 -20 121 -16 189 14 370 65
600 168 36 16 72 34 80 39 8 6 26 15 39 20 13 6 44 24 68 40 24 17 46 30 49
30 12 0 145 107 203 163 77 75 182 212 213 277 7 14 17 32 23 40 25 34 98 213
121 300 49 180 57 243 58 430 1 188 -8 260 -50 395 -18 57 -110 251 -132 277
-9 10 -15 39 -15 70 0 42 6 64 30 103 26 44 99 192 123 250 17 41 48 163 64
250 18 103 21 223 5 310 -5 33 -14 85 -18 115 -16 102 -82 280 -142 381 -16
27 -29 52 -29 54 0 2 -19 32 -42 66 -61 89 -174 215 -254 284 -38 33 -71 63
-74 66 -12 15 -191 130 -250 161 -91 49 -241 112 -330 138 -128 38 -121 36
-335 91 -27 7 -71 14 -96 17 -41 3 -48 1 -71 -26 -29 -34 -42 -99 -29 -135 5
-13 27 -35 47 -48 37 -22 45 -23 274 -24 l235 -1 95 -33 c52 -18 109 -40 125
-49 37 -20 158 -95 165 -102 3 -3 34 -29 70 -57 36 -29 88 -79 115 -110 63
-73 155 -189 155 -196 0 -3 13 -26 30 -50 16 -25 30 -48 30 -51 0 -3 15 -39
34 -78 90 -195 125 -335 133 -547 6 -140 -12 -285 -43 -359 -8 -18 -14 -40
-14 -48 0 -9 -6 -30 -14 -47 -8 -18 -27 -60 -41 -94 -26 -58 -30 -63 -59 -63
-22 0 -44 12 -76 42 -25 22 -69 62 -97 89 -60 55 -192 144 -273 184 -30 14
-62 30 -71 35 -15 8 -121 44 -204 70 -69 21 -287 50 -380 50 -96 0 -313 -29
-385 -52 -159 -50 -243 -86 -380 -166 -79 -46 -175 -82 -219 -82 -36 0 -120
41 -153 75 -67 67 -122 227 -148 430 -13 105 -62 195 -106 195 -29 0 -34 -16
-34 -110 0 -85 -30 -270 -54 -338 -32 -90 -88 -161 -151 -195 -32 -17 -57 -22
-125 -22 -73 0 -97 5 -170 34 -47 18 -92 40 -101 47 -8 8 -19 14 -24 14 -7 0
-73 29 -117 51 -16 8 -123 44 -203 69 -29 9 -94 21 -220 40 -161 25 -411 -1
-600 -62 -176 -57 -376 -172 -495 -284 -152 -143 -152 -143 -172 -131 -10 7
-22 23 -25 37 -6 22 -28 73 -53 122 -14 25 -46 123 -67 203 -26 102 -26 418 1
525 31 123 64 217 107 305 73 147 200 308 334 425 38 33 161 120 170 120 2 0
27 14 56 30 50 30 74 40 189 79 87 30 238 51 366 52 146 0 213 10 231 35 7 10
13 42 13 71 0 48 -4 58 -37 93 -46 48 -100 60 -148 35z m220 -1804 c94 -19
199 -61 300 -120 72 -42 65 -36 143 -107 218 -198 140 -442 -199 -616 -149
-77 -294 -108 -501 -108 -167 0 -231 9 -383 52 -164 48 -317 128 -440 231 -89
75 -185 176 -185 196 0 26 166 189 248 244 126 85 301 165 410 187 23 5 51 14
61 20 11 5 35 10 53 11 18 0 58 7 88 14 88 20 300 18 405 -4z m2733 -2 c53 -6
120 -17 147 -26 64 -20 157 -55 170 -64 6 -3 46 -25 90 -49 44 -23 87 -49 96
-56 8 -8 18 -14 22 -14 29 0 168 -125 192 -173 29 -59 11 -137 -47 -197 -149
-155 -310 -250 -542 -319 -38 -12 -81 -21 -95 -21 -14 -1 -53 -7 -86 -15 -83
-20 -307 -20 -415 1 -94 18 -197 47 -250 71 -142 64 -233 142 -282 241 -19 39
-23 62 -23 142 1 124 27 182 119 266 181 166 548 253 904 213z m-1547 -233
c37 -35 69 -106 76 -169 11 -108 -29 -247 -88 -306 -38 -38 -63 -39 -97 -3
-46 49 -67 124 -66 237 0 113 20 174 77 233 37 38 63 40 98 8z"/>
<path d="M6647 8273 c-3 -5 -13 -35 -22 -68 -15 -50 -18 -117 -22 -395 l-4
-335 29 -30 c16 -16 204 -201 417 -410 214 -209 510 -500 659 -646 149 -147
332 -326 406 -399 74 -73 300 -294 503 -493 l367 -360 0 -552 0 -552 115 -114
c127 -127 209 -179 280 -179 113 0 203 124 253 345 36 160 46 317 43 695 l-2
354 128 124 c70 69 364 357 653 641 288 284 619 608 734 721 589 575 737 731
792 835 37 68 45 139 51 452 7 327 6 333 -46 333 -21 0 -51 -26 -146 -127
-169 -180 -1536 -1546 -1985 -1984 -495 -482 -522 -509 -540 -509 -8 0 -526
512 -1150 1138 -1222 1223 -1440 1445 -1459 1479 -13 25 -47 47 -54 36z"/>
<path d="M6911 6924 c-40 -51 -39 -198 1 -284 54 -115 174 -242 796 -849 151
-146 361 -351 468 -456 l194 -190 0 -115 c1 -203 15 -350 40 -400 25 -50 406
-434 421 -424 13 8 11 94 -5 268 -8 83 -20 237 -26 341 -6 105 -14 211 -17
237 -5 47 -8 49 -451 485 -245 241 -450 443 -456 449 -6 6 -207 209 -447 451
-240 241 -439 448 -443 460 -4 12 -18 28 -31 37 -23 15 -25 14 -44 -10z"/>
<path d="M11654 6892 c-21 -21 -136 -140 -254 -263 -118 -123 -521 -529 -895
-902 l-680 -677 -3 -408 c-1 -245 2 -413 7 -422 8 -12 26 1 93 65 231 224 295
293 334 365 16 31 19 63 22 261 l3 227 322 313 c520 506 980 969 1032 1039 78
105 88 137 89 270 1 113 -7 170 -23 170 -4 0 -25 -17 -47 -38z"/>
<path d="M9669 6756 c-2 -2 -57 -11 -121 -21 -94 -13 -131 -23 -184 -51 -157
-82 -301 -204 -394 -334 -19 -27 -25 -47 -24 -86 0 -48 4 -57 59 -125 68 -85
272 -286 297 -294 12 -4 73 49 217 192 111 108 201 201 201 206 0 5 -22 37
-48 71 -79 100 -92 127 -92 189 0 52 2 57 39 86 21 17 49 31 62 31 48 0 68 12
79 45 12 37 1 79 -25 89 -18 7 -59 8 -66 2z"/>
</g>
</svg>
