<?xml version="1.0" standalone="no"?>
<!DOCTYPE svg PUBLIC "-//W3C//DTD SVG 20010904//EN"
 "http://www.w3.org/TR/2001/REC-SVG-20010904/DTD/svg10.dtd">
<svg version="1.0" xmlns="http://www.w3.org/2000/svg"
 width="1280.000000pt" height="720.000000pt" viewBox="0 0 1280.000000 720.000000"
 preserveAspectRatio="xMidYMid meet">

<g transform="translate(0.000000,720.000000) scale(0.100000,-0.100000)"
fill="#ffffff" stroke="none">
<path d="M8105 5583 c-11 -3 -27 -11 -35 -18 -15 -12 -103 -42 -205 -70 -157
-42 -269 -77 -320 -100 -199 -88 -318 -168 -456 -304 -94 -94 -206 -232 -243
-301 -109 -204 -154 -329 -187 -520 -16 -94 -7 -420 13 -485 9 -27 25 -77 34
-110 21 -71 49 -135 112 -264 25 -52 45 -106 44 -120 -1 -14 -24 -71 -51 -126
-59 -119 -77 -161 -101 -240 -83 -271 -76 -569 18 -860 28 -85 54 -151 73
-185 4 -8 22 -42 39 -75 152 -295 458 -528 910 -693 136 -50 316 -87 383 -80
59 7 118 37 136 69 10 17 12 39 7 72 -7 46 -8 47 -59 61 -31 8 -126 17 -232
20 -99 3 -196 10 -215 15 -178 48 -199 55 -297 108 -123 65 -213 132 -307 227
-80 80 -206 246 -206 270 0 5 -6 17 -13 25 -39 46 -112 257 -141 406 -21 106
-21 330 -1 408 8 32 15 68 15 79 0 12 9 51 21 87 21 64 29 87 62 161 8 19 20
49 27 67 6 17 19 34 27 38 16 6 27 -2 98 -67 212 -196 445 -317 740 -384 114
-26 436 -26 550 0 160 36 236 62 405 143 216 103 250 115 336 116 60 0 77 -4
100 -22 71 -55 118 -175 169 -431 30 -149 62 -220 99 -220 40 0 54 49 97 335
17 111 60 226 103 273 82 92 204 81 461 -43 242 -116 372 -156 578 -176 140
-14 329 -2 437 28 99 27 184 54 215 68 83 36 151 71 182 92 19 13 36 23 38 23
14 0 121 83 220 171 115 102 142 108 174 36 72 -166 80 -192 121 -397 11 -57
11 -260 0 -325 -17 -96 -38 -190 -50 -225 -54 -150 -107 -258 -185 -375 -116
-174 -391 -391 -550 -435 -27 -8 -71 -22 -160 -52 -16 -6 -124 -14 -240 -18
-285 -10 -325 -25 -325 -120 0 -59 16 -74 102 -97 63 -16 71 -16 180 1 62 10
127 22 143 28 17 5 53 16 80 23 62 16 112 34 147 51 14 8 31 14 37 14 17 0
252 115 294 144 21 14 40 26 44 26 13 0 173 132 225 186 197 204 324 468 382
799 21 117 21 356 1 467 -20 108 -72 269 -97 304 -5 7 -27 46 -48 89 -50 96
-53 143 -11 213 49 83 116 232 150 332 25 75 51 249 51 348 0 105 -19 239 -45
323 -8 26 -15 52 -15 59 0 14 -65 174 -81 200 -5 8 -16 29 -24 45 -34 66 -84
140 -152 225 -231 289 -558 484 -993 595 -30 8 -75 19 -100 25 -25 7 -68 18
-96 26 -55 15 -103 18 -119 6 -6 -4 -21 -20 -33 -36 -27 -36 -31 -116 -6 -141
49 -49 56 -50 294 -50 188 0 235 -3 285 -18 122 -37 212 -79 321 -149 22 -14
47 -32 55 -40 8 -7 36 -31 63 -53 59 -48 186 -196 244 -284 163 -250 257 -599
231 -858 -10 -110 -32 -221 -47 -250 -7 -12 -12 -29 -12 -38 0 -9 -6 -31 -14
-48 -8 -18 -25 -57 -39 -89 -35 -79 -70 -85 -136 -20 -295 290 -629 427 -1031
425 -266 -2 -540 -77 -735 -202 -177 -113 -295 -119 -394 -20 -51 50 -100 168
-120 285 -32 188 -52 261 -85 311 -20 31 -58 44 -70 25 -3 -5 -8 -55 -11 -113
-14 -243 -56 -384 -138 -470 -58 -60 -103 -79 -190 -79 -87 0 -145 18 -297 91
-176 86 -257 114 -410 144 -198 40 -373 40 -570 0 -205 -40 -334 -96 -530
-228 -76 -51 -88 -61 -208 -174 -36 -35 -69 -63 -73 -63 -13 0 -49 52 -49 71
0 10 -4 20 -8 23 -5 3 -21 38 -37 78 -15 40 -34 87 -41 105 -8 17 -14 39 -14
50 0 10 -7 41 -16 68 -24 75 -23 373 1 480 18 83 57 209 73 241 5 11 24 51 43
89 86 179 288 415 425 497 189 113 296 158 439 185 44 8 161 18 260 22 99 5
187 11 197 15 26 12 41 60 34 111 -6 34 -16 54 -43 80 -20 19 -43 35 -52 35
-9 0 -25 2 -36 4 -11 2 -29 2 -40 -1z m175 -1809 c100 -20 236 -72 335 -128
94 -53 215 -175 240 -241 87 -235 -142 -471 -555 -571 -106 -26 -392 -26 -505
0 -212 49 -387 126 -525 232 -72 55 -203 182 -219 213 -12 21 -10 27 21 59
109 117 199 193 288 245 280 162 660 241 920 191z m2755 -9 c66 -8 138 -21
160 -29 22 -9 46 -15 52 -16 15 0 157 -67 228 -107 150 -84 255 -172 286 -240
24 -53 24 -57 -5 -118 -49 -104 -239 -255 -406 -323 -30 -13 -64 -27 -75 -33
-32 -15 -124 -39 -207 -54 -42 -7 -82 -16 -88 -20 -6 -4 -86 -7 -178 -7 -231
0 -365 28 -532 110 -81 40 -181 129 -218 195 -49 85 -49 221 -1 322 51 108
200 212 379 264 41 12 91 27 110 33 41 13 228 35 315 36 33 1 114 -5 180 -13z
m-1537 -235 c12 -8 22 -20 22 -26 0 -6 6 -17 14 -23 7 -6 21 -41 31 -77 17
-63 17 -71 1 -154 -22 -114 -55 -179 -106 -213 -37 -24 -68 -4 -105 68 -27 54
-30 71 -33 170 -3 100 -1 115 22 165 29 62 41 79 75 102 24 17 38 15 79 -12z"/>
<path d="M244 5443 c-3 -16 -11 -41 -16 -58 -7 -18 -13 -163 -16 -371 l-4
-341 1171 -1169 1171 -1170 0 -555 0 -556 129 -125 c89 -87 138 -128 159 -133
18 -3 34 -11 37 -16 4 -5 29 -9 56 -9 65 0 119 34 164 104 101 159 135 392
135 939 0 188 4 348 8 355 5 7 492 497 1083 1090 1151 1152 1170 1174 1198
1297 13 61 35 603 26 663 -5 32 -12 45 -28 51 -31 12 -53 -2 -122 -78 -33 -36
-94 -102 -135 -146 -407 -435 -2357 -2395 -2383 -2395 -15 0 -136 120 -622
614 -66 68 -348 354 -626 637 -279 283 -549 557 -600 610 -334 342 -410 421
-548 566 -84 89 -162 175 -172 192 -24 40 -56 41 -65 4z"/>
<path d="M511 4114 c-18 -23 -21 -40 -21 -127 0 -96 1 -103 36 -166 20 -36 61
-97 91 -136 31 -38 342 -355 692 -704 l636 -633 7 -218 c3 -120 11 -234 16
-253 6 -20 26 -60 46 -89 40 -62 374 -390 387 -382 13 8 11 87 -5 259 -8 83
-18 220 -21 305 -4 85 -12 194 -19 242 l-11 88 -495 497 c-849 854 -1211 1227
-1258 1296 -34 51 -53 56 -81 21z"/>
<path d="M5054 3962 c-88 -91 -199 -209 -249 -261 -127 -135 -1308 -1335
-1410 -1433 -19 -18 -20 -34 -23 -416 -3 -394 -1 -442 18 -442 13 0 317 303
361 360 69 90 72 102 77 348 l4 223 613 612 c336 337 642 650 679 697 91 114
112 159 120 251 9 94 -2 216 -19 223 -7 2 -82 -68 -171 -162z"/>
<path d="M3200 3950 c-25 -4 -82 -13 -128 -20 -59 -9 -102 -22 -150 -48 -86
-45 -249 -170 -309 -236 -109 -121 -126 -183 -73 -268 36 -57 294 -325 322
-334 16 -5 57 32 214 188 121 121 194 200 194 213 0 11 -13 34 -28 50 -15 17
-45 56 -66 89 -33 49 -39 67 -40 114 0 52 2 57 38 88 28 24 49 34 73 34 41 0
73 30 73 68 0 57 -37 76 -120 62z"/>
</g>
</svg>
