<svg xmlns="http://www.w3.org/2000/svg" version="1.0" width="305.000000pt" height="130.000000pt" viewBox="0 0 305.000000 130.000000" preserveAspectRatio="xMidYMid meet">
  <metadata>Created by combining two SVGs</metadata>
  <g transform="translate(0.000000,130.000000) scale(0.025000,-0.025000)" fill="#ffffff" stroke="none">
    <!-- First SVG -->
    <g transform="translate(0.000000,0.000000)">
      <path d="M360 1884 l0 -175 510 -510 510 -510 0 -242 0 -241 72 -74 c135 -139 228 -9 226 316 l-2 238 497 498 c587 588 500 470 513 691 12 207 5 216 -86 110 -59 -69 -567 -586 -927 -943 l-150 -148 -556 565 c-306 311 -560 573 -564 583 -23 64 -43 -7 -43 -158z"/>
      <path d="M480 1411 c0 -83 17 -103 378 -460 l262 -259 0 -112 c0 -108 3 -115 101 -211 l102 -99 -14 200 -13 200 -383 384 c-210 211 -385 393 -389 405 -16 47 -44 17 -44 -48z"/>
      <path d="M2480 1405 c-36 -41 -218 -229 -403 -416 l-337 -342 0 -188 0 -187 100 98 c96 95 100 103 100 210 l0 111 310 308 c304 303 310 310 310 395 0 104 2 104 -80 11z"/>
      <path d="M1600 1385 c-77 -8 -240 -148 -240 -205 0 -18 36 -67 80 -110 l81 -79 90 91 91 90 -45 57 c-44 56 -21 111 47 111 9 0 16 14 16 30 0 17 -11 29 -25 27 -14 -2 -56 -7 -95 -12z"/>
    </g>
    <!-- Second SVG -->
    <g transform="translate(153.000000,0.000000)">
      <path d="M976 2170 c-6 -7 -67 -25 -134 -41 -391 -91 -614 -529 -444 -874 l46 -94 -47 -96 c-99 -201 -54 -493 103 -672 154 -175 570 -316 570 -193 0 48 -5 50 -130 50 -380 0 -643 417 -491 780 l31 74 70 -62 c201 -176 490 -211 726 -87 188 98 229 78 268 -132 28 -148 66 -160 82 -27 27 228 83 258 284 153 233 -121 514 -85 706 90 82 75 73 77 112 -19 141 -354 -126 -772 -492 -767 -103 1 -136 -5 -146 -29 -56 -148 373 -41 550 136 187 187 243 526 120 734 -38 65 -38 67 0 131 207 353 -18 794 -467 914 -183 49 -185 49 -201 8 -23 -58 24 -87 120 -74 348 48 658 -416 516 -773 -39 -96 -27 -95 -119 -10 -194 178 -528 202 -753 55 -124 -82 -207 -20 -229 170 -12 103 -67 155 -67 64 0 -230 -96 -312 -259 -223 -253 139 -557 106 -756 -82 l-64 -61 -35 79 c-154 351 117 777 494 778 125 0 130 2 130 50 0 48 -62 81 -94 50z m170 -817 c199 -84 246 -207 119 -312 -186 -154 -528 -119 -707 72 l-45 47 49 52 c131 141 419 210 584 141z m1294 -23 c209 -108 232 -159 118 -257 -269 -230 -800 -124 -707 141 51 146 400 214 589 116z m-801 -108 c25 -59 -14 -182 -57 -182 -40 0 -68 118 -42 180 31 76 68 77 99 2z"/>
    </g>
  </g>
</svg>
