<?xml version='1.0' encoding='utf-8'?>
<svg xmlns="http://www.w3.org/2000/svg" version="1.0" width="117.000000pt" height="124.000000pt" viewBox="0 0 117.000000 124.000000" preserveAspectRatio="xMidYMid meet"> <metadata> Created by potrace 1.10, written by Peter Selinger 2001-2011 </metadata> <g transform="translate(0.000000,124.000000) scale(0.050000,-0.050000)" fill="#000000" stroke="none"> <path d="M1058 2241 c-325 -59 -609 -341 -678 -672 -13 -60 -31 -109 -41 -109 -27 0 -23 -48 10 -113 15 -32 43 -111 61 -178 33 -118 150 -309 190 -309 32 0 23 36 -30 120 -49 78 -122 334 -101 355 17 17 316 -37 377 -68 83 -43 92 -77 161 -619 61 -477 66 -498 108 -504 l45 -7 0 662 0 661 -340 0 c-382 0 -367 -8 -291 155 301 646 1227 575 1440 -110 l14 -45 -347 0 -346 0 0 -655 0 -655 45 -6 c25 -4 45 -4 46 0 0 3 30 238 67 522 83 638 72 621 435 664 l113 14 -18 -97 c-22 -118 -68 -236 -120 -309 -45 -65 -16 -101 40 -50 55 50 161 282 175 381 7 49 24 93 40 99 35 14 35 92 0 92 -18 0 -32 34 -39 98 -52 436 -547 769 -1016 683z"/> </g> </svg>
