<?xml version="1.0" standalone="no"?>
<!DOCTYPE svg PUBLIC "-//W3C//DTD SVG 20010904//EN"
 "http://www.w3.org/TR/2001/REC-SVG-20010904/DTD/svg10.dtd">
<svg version="1.0" xmlns="http://www.w3.org/2000/svg"
 width="1280.000000pt" height="720.000000pt" viewBox="0 0 1280.000000 720.000000"
 preserveAspectRatio="xMidYMid meet">

<g transform="translate(0.000000,720.000000) scale(0.100000,-0.100000)"
fill="#ffffff" stroke="none">
<path d="M2535 5915 c-33 -7 -74 -14 -91 -14 -18 -1 -54 -8 -80 -16 -164 -48
-232 -70 -254 -82 -14 -7 -30 -13 -35 -13 -15 0 -223 -107 -273 -141 -24 -16
-45 -29 -48 -29 -2 0 -12 -7 -21 -15 -10 -9 -52 -41 -93 -72 -97 -73 -185
-154 -288 -267 -73 -80 -190 -232 -201 -261 -2 -5 -18 -32 -36 -60 -30 -46
-145 -277 -145 -291 0 -3 -6 -20 -13 -37 -20 -47 -46 -130 -57 -179 -39 -180
-79 -296 -115 -332 -17 -17 -34 -38 -37 -47 -6 -17 18 -137 31 -154 5 -5 13
-23 19 -40 6 -16 20 -55 32 -85 33 -86 65 -178 89 -260 23 -76 30 -96 71 -205
104 -273 325 -602 399 -593 21 2 27 9 29 37 4 39 -20 99 -82 204 -62 105 -131
267 -157 370 -5 21 -13 45 -18 55 -9 18 -38 128 -66 248 -9 38 -15 95 -13 125
l3 54 63 3 c35 2 98 -4 140 -12 42 -8 102 -17 132 -21 30 -3 87 -13 125 -21
39 -9 97 -22 130 -30 33 -7 76 -16 95 -20 127 -23 255 -88 301 -152 59 -82 92
-199 138 -487 7 -38 16 -99 22 -135 10 -60 16 -107 49 -365 6 -49 17 -133 25
-185 15 -98 26 -187 49 -375 14 -109 26 -202 47 -345 5 -41 16 -122 24 -180 8
-58 18 -121 24 -140 6 -19 11 -48 11 -65 0 -35 38 -151 60 -182 20 -28 127
-60 143 -44 17 17 22 3008 6 3027 -9 12 -124 14 -653 14 -771 1 -848 7 -880
74 -14 30 -14 38 0 82 18 55 104 244 134 294 5 8 28 49 52 90 23 41 46 80 50
85 110 147 259 309 348 378 120 93 195 141 305 194 125 61 174 83 190 83 8 0
29 7 47 14 47 21 158 50 268 71 133 26 447 26 580 1 117 -22 245 -54 287 -72
17 -8 35 -14 41 -14 14 0 158 -61 192 -81 8 -5 22 -12 30 -16 20 -8 152 -85
165 -95 5 -4 52 -40 102 -78 179 -136 328 -306 450 -515 6 -11 31 -58 54 -105
23 -47 46 -94 51 -104 12 -23 46 -120 57 -161 4 -17 13 -41 20 -53 7 -13 11
-33 9 -45 l-3 -22 -790 -5 -790 -5 -3 -1499 c-1 -825 1 -1503 5 -1507 11 -11
181 -34 189 -27 11 12 35 139 49 263 25 220 36 309 50 405 14 92 26 188 46
355 10 82 31 242 50 375 5 41 16 127 24 190 13 110 24 183 47 315 5 33 16 98
24 145 64 390 161 542 391 614 64 20 250 52 353 61 41 3 116 12 165 20 132 20
214 23 224 6 5 -7 4 -29 0 -50 -5 -20 -16 -72 -24 -116 -23 -126 -55 -248 -86
-330 -10 -28 -19 -56 -19 -64 0 -7 -16 -45 -35 -84 -19 -39 -35 -75 -35 -80 0
-5 -31 -62 -69 -126 -37 -64 -74 -133 -81 -155 -11 -34 -10 -40 8 -58 42 -43
125 15 211 147 60 92 211 396 211 426 0 8 7 23 15 33 8 11 15 26 15 34 0 8 6
28 14 45 19 43 52 162 60 216 16 107 56 204 99 240 33 28 57 77 57 118 0 33
-34 93 -53 93 -33 0 -60 50 -83 152 -13 57 -24 118 -24 137 0 46 -48 215 -91
326 -117 296 -369 607 -660 815 -241 172 -557 309 -834 361 -27 5 -75 14 -105
20 -88 18 -483 21 -555 4z"/>
<path d="M8092 5557 c-13 -15 -108 -46 -317 -102 -293 -79 -501 -199 -705
-408 -88 -90 -180 -207 -201 -257 -5 -13 -14 -27 -18 -30 -14 -10 -89 -178
-118 -265 -60 -179 -68 -233 -68 -445 0 -206 -1 -201 61 -404 14 -43 54 -139
90 -213 76 -156 76 -148 4 -292 -77 -153 -99 -214 -134 -377 -22 -100 -22
-370 0 -484 41 -207 98 -373 177 -505 96 -162 241 -320 382 -413 44 -29 87
-57 95 -63 47 -31 269 -140 345 -169 33 -13 74 -29 92 -36 17 -8 38 -14 47
-14 8 0 30 -6 48 -14 40 -17 200 -46 255 -46 54 0 130 27 148 53 20 28 20 111
0 131 -23 23 -105 34 -296 40 -120 3 -189 10 -220 20 -24 9 -52 16 -62 16 -46
0 -251 100 -356 173 -103 72 -243 215 -310 317 -73 110 -161 290 -161 329 0 9
-7 28 -14 43 -8 16 -18 49 -21 75 -4 27 -13 75 -21 108 -15 66 -18 254 -4 325
4 25 14 74 20 110 12 63 41 165 60 205 34 76 50 116 50 128 0 15 31 47 46 47
5 0 23 -14 39 -31 17 -17 64 -59 105 -92 41 -34 77 -64 80 -67 14 -17 155
-103 225 -138 97 -49 161 -74 240 -95 33 -9 89 -24 125 -33 97 -27 464 -26
570 0 191 47 225 60 415 151 197 95 253 111 362 106 21 0 45 -13 68 -32 63
-56 90 -129 150 -409 35 -162 65 -230 103 -230 30 0 56 59 70 160 40 267 59
341 108 415 80 121 207 122 456 1 263 -126 348 -155 543 -182 207 -28 441 -6
640 60 50 17 64 22 165 72 117 56 216 125 350 244 138 123 134 124 220 -75 20
-47 50 -147 50 -168 0 -12 7 -44 15 -71 11 -35 15 -96 15 -211 0 -115 -4 -176
-15 -211 -8 -27 -15 -59 -15 -70 0 -50 -85 -271 -140 -364 -17 -28 -30 -53
-30 -56 0 -15 -119 -161 -186 -228 -134 -134 -292 -233 -449 -282 -44 -14 -93
-30 -110 -36 -16 -6 -122 -14 -235 -18 -227 -8 -290 -20 -320 -58 -25 -31 -26
-93 -2 -120 19 -23 108 -52 158 -52 46 0 261 38 284 50 10 5 28 10 40 10 12 0
36 6 53 14 18 7 59 23 92 35 71 26 93 36 205 91 96 46 106 52 173 97 26 18 50
33 53 33 13 0 172 141 218 192 26 29 71 89 99 133 72 110 76 117 86 140 5 11
22 49 38 85 94 203 137 409 137 645 -1 257 -38 393 -174 645 -33 60 -39 122
-16 155 23 34 117 218 132 260 27 72 61 198 74 269 23 126 14 325 -21 469 -30
125 -30 123 -73 219 -14 31 -26 59 -26 62 0 16 -112 192 -165 261 -240 308
-565 506 -1020 621 -281 71 -278 71 -310 50 -30 -20 -55 -71 -55 -115 0 -40
43 -88 88 -100 20 -6 129 -9 242 -8 216 2 233 0 385 -57 192 -71 445 -287 561
-479 16 -27 37 -61 46 -75 10 -15 22 -36 27 -47 5 -11 21 -45 36 -75 79 -163
135 -409 134 -595 0 -49 -4 -110 -9 -135 -6 -25 -14 -68 -19 -95 -12 -68 -68
-230 -101 -296 -35 -67 -50 -61 -218 94 -61 55 -205 156 -254 177 -13 6 -30
14 -38 19 -209 119 -607 173 -890 121 -123 -23 -221 -48 -234 -61 -6 -5 -16
-9 -24 -9 -14 0 -88 -31 -122 -51 -8 -5 -24 -13 -35 -18 -11 -5 -54 -29 -95
-53 -41 -24 -95 -52 -120 -61 -92 -34 -194 -13 -256 54 -73 80 -100 159 -145
424 -20 118 -64 205 -106 205 -28 0 -30 -10 -37 -150 -7 -150 -47 -331 -82
-371 -8 -8 -14 -20 -14 -25 0 -17 -74 -83 -115 -104 -30 -15 -59 -20 -120 -20
-91 0 -127 12 -307 99 -236 114 -433 161 -678 161 -388 -1 -710 -130 -993
-400 -49 -47 -93 -87 -99 -89 -13 -4 -48 29 -48 47 0 7 -7 26 -14 40 -39 71
-70 159 -102 282 -33 132 -35 376 -3 513 21 91 52 193 68 225 5 9 20 43 35 75
30 65 111 199 147 242 118 141 198 214 314 290 92 60 246 135 279 135 8 0 30
6 48 14 56 24 176 39 361 45 172 6 180 7 198 30 25 30 25 106 1 143 -32 49
-66 68 -120 68 -29 0 -54 -6 -60 -13z m210 -1797 c57 -11 112 -24 123 -29 11
-6 45 -20 75 -33 110 -45 195 -101 275 -182 85 -86 104 -121 112 -213 9 -100
-55 -210 -178 -303 -134 -102 -278 -160 -479 -192 -78 -12 -363 -5 -403 11
-15 6 -51 15 -80 20 -106 18 -298 101 -416 179 -77 51 -271 242 -271 267 0 25
174 196 253 249 94 61 240 131 334 160 49 15 103 31 122 37 18 6 63 15 100 21
36 5 86 13 111 17 82 15 215 12 322 -9z m2730 -5 c70 -8 148 -21 173 -29 25
-9 51 -16 57 -16 11 0 217 -100 252 -123 167 -107 225 -156 256 -218 11 -21
20 -50 20 -64 0 -88 -160 -250 -339 -343 -354 -184 -787 -210 -1124 -68 -110
47 -220 140 -267 227 -22 39 -25 56 -24 154 0 116 5 132 62 213 30 42 140 125
207 156 120 57 251 93 405 110 155 18 175 18 322 1z m-1524 -233 c46 -46 82
-135 82 -202 0 -144 -94 -327 -157 -303 -85 32 -134 271 -81 396 33 80 74 127
109 127 16 0 37 -8 47 -18z"/>
</g>
</svg>
  
