<?xml version='1.0' encoding='utf-8'?>
<svg xmlns="http://www.w3.org/2000/svg" version="1.0" width="900.000000pt" height="1005.000000pt" viewBox="0 0 900.000000 1005.000000" preserveAspectRatio="xMidYMid meet"> <metadata> Created by potrace 1.10, written by Peter Selinger 2001-2011 </metadata> <g transform="translate(0.000000,1005.000000) scale(0.100000,-0.100000)" fill="#ffffff" stroke="none"> <path d="M4065 9710 c-71 -4 -161 -12 -200 -18 -38 -6 -113 -16 -165 -22 -105 -13 -394 -71 -480 -96 -110 -33 -156 -47 -190 -59 -19 -7 -80 -27 -135 -45 -214 -69 -328 -115 -545 -222 -124 -61 -236 -119 -250 -128 -14 -9 -50 -30 -80 -46 -86 -45 -376 -242 -501 -338 -418 -324 -776 -712 -1062 -1151 -21 -33 -47 -72 -57 -86 -105 -150 -350 -658 -350 -726 0 -69 -126 -64 1498 -61 1377 3 1469 4 1499 21 18 9 83 51 145 92 245 164 584 299 878 350 186 32 203 42 220 127 9 46 13 371 17 1199 l5 1137 -33 35 c-19 19 -45 37 -59 39 -14 2 -83 1 -155 -2z"/> <path d="M4631 9711 c-13 -4 -37 -22 -52 -41 l-28 -35 9 -1140 c5 -627 12 -1160 15 -1184 10 -87 42 -106 225 -136 58 -9 119 -22 135 -27 17 -6 48 -14 70 -18 45 -9 70 -17 210 -73 150 -58 349 -159 444 -222 127 -85 181 -112 238 -119 49 -6 2663 -7 2811 -1 40 2 79 8 86 14 43 35 22 110 -95 346 -86 174 -125 248 -191 356 -24 38 -47 78 -53 87 -29 49 -167 249 -231 334 -245 323 -555 640 -853 869 -223 171 -495 347 -701 452 -74 38 -139 72 -145 76 -5 4 -35 18 -65 31 -30 12 -89 38 -130 57 -41 20 -106 47 -145 60 -38 14 -90 33 -115 43 -121 46 -383 126 -490 150 -226 51 -343 71 -590 104 -131 17 -323 26 -359 17z"/> <path d="M4095 6921 c-22 -5 -76 -18 -120 -31 -44 -12 -93 -26 -110 -30 -28 -7 -107 -36 -220 -82 -27 -11 -88 -41 -135 -66 -207 -111 -397 -262 -547 -437 -155 -180 -305 -444 -363 -640 -60 -200 -80 -304 -92 -475 -13 -180 0 -397 32 -520 11 -41 22 -86 26 -100 19 -78 40 -141 79 -235 23 -58 109 -231 139 -280 61 -101 176 -243 282 -347 98 -96 263 -238 277 -238 3 0 29 -16 58 -36 180 -121 548 -255 742 -270 107 -8 122 3 131 98 10 102 26 1791 26 2722 0 887 -1 916 -41 951 -20 19 -107 27 -164 16z"/> <path d="M4634 6924 c-51 -12 -49 78 -49 -1878 0 -1443 3 -1830 13 -1863 10 -34 19 -44 48 -53 37 -12 115 -3 214 25 25 7 56 15 70 18 14 3 63 20 110 37 47 18 99 36 115 41 17 5 85 35 151 68 208 103 420 261 560 418 67 74 202 251 217 283 4 8 15 29 25 45 70 115 159 329 196 473 9 34 23 88 31 120 35 135 35 570 0 732 -49 226 -147 481 -231 605 -13 20 -24 38 -24 40 0 9 -106 152 -159 215 -188 222 -473 438 -701 531 -41 16 -84 34 -95 38 -32 14 -105 37 -175 56 -36 10 -85 24 -110 31 -49 15 -172 25 -206 18z"/> <path d="M155 3306 c-83 -15 -88 -20 -83 -75 6 -57 141 -336 249 -516 10 -16 30 -51 43 -76 14 -25 50 -83 80 -129 31 -46 56 -85 56 -86 0 -9 209 -287 266 -354 12 -14 41 -47 64 -75 227 -267 412 -442 730 -690 57 -44 387 -265 396 -265 4 0 15 -6 23 -14 24 -20 103 -62 347 -184 230 -116 315 -152 454 -196 47 -15 101 -33 120 -41 19 -7 62 -21 95 -30 33 -10 101 -30 150 -45 236 -74 448 -114 793 -150 237 -25 274 -25 295 -2 41 45 42 81 42 1232 0 1046 -1 1108 -18 1152 -20 51 -34 59 -137 74 -25 3 -90 17 -145 31 -55 14 -116 29 -135 33 -32 8 -191 64 -250 88 -147 60 -307 150 -485 272 l-89 60 -1400 -1 c-975 -1 -1419 -5 -1461 -13z"/> <path d="M5898 3309 c-67 -10 -71 -11 -203 -97 -55 -36 -122 -79 -150 -97 -66 -42 -297 -144 -410 -183 -128 -42 -226 -66 -423 -103 -94 -18 -103 -28 -113 -135 -10 -102 -9 -1541 2 -1983 6 -269 8 -295 26 -320 15 -20 30 -27 64 -29 71 -6 424 34 609 69 108 20 206 40 255 54 28 7 79 21 115 30 112 29 235 65 285 85 11 4 56 20 100 35 203 70 299 111 546 235 172 86 266 136 289 155 8 6 51 34 95 61 86 52 100 61 280 191 96 70 291 225 315 253 3 3 41 37 85 75 211 186 504 528 706 825 47 68 139 218 139 225 0 2 13 23 29 47 16 24 42 70 58 103 16 33 45 87 63 120 139 249 166 338 113 372 -26 17 -105 18 -1423 19 -767 1 -1421 -2 -1452 -7z"/> </g> </svg>
  
