<?xml version='1.0' encoding='utf-8'?>
<svg xmlns="http://www.w3.org/2000/svg" version="1.0" width="133.000000pt" height="145.000000pt" viewBox="0 0 133.000000 145.000000" preserveAspectRatio="xMidYMid meet"> <metadata> Created by potrace 1.10, written by Peter Selinger 2001-2011 </metadata> <g transform="translate(0.000000,145.000000) scale(0.050000,-0.050000)" fill="#ffffff" stroke="none"> <path d="M1467 2487 c7 -51 13 -321 13 -600 0 -494 1 -507 40 -507 22 0 40 -9 40 -20 0 -11 19 -20 42 -20 221 0 346 -415 178 -591 -180 -189 -400 -194 -585 -14 -87 84 -96 150 -32 219 l44 46 -288 0 c-304 0 -324 -11 -124 -70 100 -29 231 -110 178 -110 -75 0 183 -273 308 -325 91 -38 106 -59 158 -230 54 -177 46 -179 109 25 l53 169 110 52 c117 56 181 123 268 281 52 94 60 99 210 144 177 54 176 59 -26 122 -140 43 -149 50 -186 133 -48 111 -123 193 -249 275 -96 63 -98 67 -121 204 -21 125 -107 845 -107 891 0 11 -10 19 -23 19 -15 0 -18 -29 -10 -93z"/> </g> </svg>
