<svg version="1.1" id="Layer_1" xmlns="http://www.w3.org/2000/svg" xmlns:xlink="http://www.w3.org/1999/xlink" x="0px" y="0px"
	 width="100%" viewBox="0 0 500 500" enable-background="new 0 0 500 500" xml:space="preserve">
<path fill="#FFFFFF" opacity="1.000000" stroke="none" 
	d="
M465.000000,501.000000 
	C310.000031,501.000000 155.500076,501.000000 1.000083,501.000000 
	C1.000055,334.333405 1.000055,167.666824 1.000028,1.000172 
	C167.666550,1.000115 334.333099,1.000115 500.999756,1.000057 
	C500.999817,167.666519 500.999817,334.333038 500.999908,500.999756 
	C489.166656,501.000000 477.333344,501.000000 465.000000,501.000000 
M151.030975,241.741058 
	C152.013550,242.474152 152.918289,243.656830 153.995499,243.843323 
	C156.009369,244.191986 158.123306,243.962646 160.226135,244.913712 
	C160.223969,251.457047 160.084778,258.005737 160.341415,264.538910 
	C160.389664,265.766632 162.017960,266.932281 163.011612,268.937378 
	C166.394440,273.318268 170.642120,269.971191 174.982727,271.039093 
	C174.982727,262.804321 175.086044,255.374771 174.931976,247.950562 
	C174.870193,244.973068 175.805679,243.672455 178.898636,243.906921 
	C181.456711,244.100845 184.041168,243.946564 187.403564,243.946564 
	C185.664902,240.031082 189.788254,235.777420 184.219818,232.958984 
	C183.780273,232.339371 183.345383,231.182541 182.900482,231.178680 
	C171.473785,231.079254 160.046036,231.100159 147.980759,231.100159 
	C149.350708,234.793549 145.446533,239.079300 151.030975,241.741058 
M350.067078,244.938171 
	C350.074554,251.254257 349.955902,257.574890 350.183777,263.883026 
	C350.236542,265.344635 351.318390,266.865417 352.191528,268.183533 
	C355.178925,272.693542 359.464539,270.097931 363.751282,270.499512 
	C363.751282,262.467377 363.901428,254.852859 363.684906,247.248795 
	C363.583923,243.701248 364.877838,242.441742 368.311096,242.734756 
	C370.691467,242.937927 373.103180,242.773849 375.735870,242.773849 
	C375.735870,240.072464 376.233490,238.056412 375.611206,236.483383 
	C374.815308,234.471466 373.175293,231.300995 371.797668,231.247681 
	C360.731384,230.819321 349.641266,231.008041 337.037018,231.008041 
	C338.208557,234.868286 339.113434,237.849884 340.052887,241.672592 
	C341.061890,242.433990 341.994263,243.681244 343.095978,243.855026 
	C345.347290,244.210144 347.689636,243.987991 350.067078,244.938171 
M144.037338,238.259491 
	C139.787094,231.360489 132.171616,228.803894 122.250488,231.017517 
	C117.176262,232.149704 112.762779,234.135376 111.707428,240.010361 
	C110.691887,245.663757 113.242775,249.534393 118.011284,252.918274 
	C118.343071,253.628616 118.674866,254.338974 118.119438,255.116074 
	C115.862663,255.116074 113.605888,255.116074 111.400703,255.116074 
	C110.485779,260.338531 112.624519,263.471619 116.111580,266.745148 
	C122.880463,272.953278 136.786377,273.795349 143.848099,268.424744 
	C148.745651,264.700073 149.431610,256.843842 144.986359,252.255051 
	C143.545074,250.611450 142.103790,248.967865 141.215286,246.662842 
	C143.121246,245.828796 145.027206,244.994766 146.933167,244.160736 
	C146.062424,242.411285 145.191696,240.661819 144.037338,238.259491 
M213.543228,266.452789 
	C217.224808,272.166931 222.828903,270.665070 228.643433,270.511444 
	C225.026901,260.408600 221.692703,250.557053 217.978333,240.850998 
	C213.061707,228.003265 214.282440,231.428375 202.087173,231.116425 
	C200.916824,231.086502 199.051651,232.495804 198.611954,233.655258 
	C194.732574,243.885101 191.040253,254.188278 187.509109,264.543610 
	C187.200012,265.450073 188.433868,266.882721 189.051514,268.885742 
	C191.663666,272.079193 199.422882,271.792725 201.706711,268.723846 
	C202.667053,267.433411 204.530228,266.439026 206.147400,266.104156 
	C208.388977,265.640076 210.785522,265.924561 213.543228,266.452789 
M246.401764,255.535324 
	C249.351562,258.922363 252.459015,262.186768 255.212616,265.726440 
	C258.936646,270.513519 263.597931,271.693054 269.723755,270.088104 
	C269.723755,260.511597 269.537262,250.891830 269.772583,241.282394 
	C270.045471,230.140320 266.034851,229.764496 256.771027,231.883179 
	C256.771027,236.962326 256.771027,242.169479 256.771027,248.629883 
	C252.700684,243.917725 249.394424,240.251297 246.269913,236.436035 
	C241.302383,230.370285 239.120453,229.632538 231.058838,231.908203 
	C231.058838,242.950577 231.012436,254.086884 231.140991,265.221191 
	C231.152084,266.181458 232.321060,267.128418 233.058731,268.887939 
	C234.611023,269.594177 236.140915,270.848206 237.719467,270.912811 
	C244.960052,271.208984 244.866318,271.087524 245.013458,264.024872 
	C245.076141,261.016510 245.648163,258.018738 246.401764,255.535324 
M275.314911,263.196411 
	C275.574615,270.013763 279.466858,272.052673 288.892822,269.825836 
	C288.892822,264.834503 288.892822,259.680237 288.892822,253.346512 
	C293.098236,258.234894 296.653687,261.949066 299.716553,266.032684 
	C303.644989,271.270294 308.657104,271.344299 314.540894,270.174011 
	C314.540894,258.938202 314.561829,247.967316 314.502594,236.996841 
	C314.497620,236.084595 314.052368,235.126389 313.640015,234.272430 
	C310.765106,228.318680 305.768890,231.951874 301.091522,230.977249 
	C301.091522,236.829575 301.091522,242.026367 301.091522,248.425949 
	C297.152069,243.831604 293.566376,240.514099 291.055847,236.520676 
	C287.231689,230.437637 281.957825,230.273300 275.315521,231.490250 
	C275.315521,241.712723 275.315521,251.988312 275.314911,263.196411 
M320.362183,238.603424 
	C320.362213,247.070450 320.285126,255.538895 320.439972,264.003082 
	C320.465118,265.377899 321.302399,266.884613 322.133423,268.071991 
	C325.389526,272.724335 330.000458,270.113159 334.631073,270.542450 
	C334.631073,260.048279 334.631653,249.962509 334.630219,239.876740 
	C334.630066,238.714661 335.027374,237.321991 334.528595,236.437668 
	C333.431488,234.492371 332.181061,231.739243 330.445404,231.246841 
	C327.443024,230.395111 324.024384,231.010605 320.363037,231.010605 
	C320.363037,233.710754 320.363037,235.674698 320.362183,238.603424 
M389.605194,257.628448 
	C387.823029,257.452606 386.009979,256.989960 384.267029,257.177826 
	C382.343811,257.385101 378.866089,258.187195 378.865417,258.733673 
	C378.861542,261.868500 379.013214,265.345184 380.384003,268.064789 
	C382.809540,272.877106 387.446777,270.086151 392.552917,270.652405 
	C391.579376,266.056641 390.767609,262.224579 389.605194,257.628448 
z"/>
<path fill="#60E2E7" opacity="1.000000" stroke="none" 
	d="
M275.315216,262.730164 
	C275.315521,251.988312 275.315521,241.712723 275.315521,231.490250 
	C281.957825,230.273300 287.231689,230.437637 291.055847,236.520676 
	C293.566376,240.514099 297.152069,243.831604 301.091522,248.425949 
	C301.091522,242.026367 301.091522,236.829575 301.091522,230.977249 
	C305.768890,231.951874 310.765106,228.318680 313.640015,234.272430 
	C314.052368,235.126389 314.497620,236.084595 314.502594,236.996841 
	C314.561829,247.967316 314.540894,258.938202 314.540894,270.174011 
	C308.657104,271.344299 303.644989,271.270294 299.716553,266.032684 
	C296.653687,261.949066 293.098236,258.234894 288.892822,253.346512 
	C288.892822,259.680237 288.892822,264.834503 288.892822,269.825836 
	C279.466858,272.052673 275.574615,270.013763 275.315216,262.730164 
z"/>
<path fill="#5EE1E6" opacity="1.000000" stroke="none" 
	d="
M232.952164,268.081543 
	C232.321060,267.128418 231.152084,266.181458 231.140991,265.221191 
	C231.012436,254.086884 231.058838,242.950577 231.058838,231.908203 
	C239.120453,229.632538 241.302383,230.370285 246.269913,236.436035 
	C249.394424,240.251297 252.700684,243.917725 256.771027,248.629883 
	C256.771027,242.169479 256.771027,236.962326 256.771027,231.883179 
	C266.034851,229.764496 270.045471,230.140320 269.772583,241.282394 
	C269.537262,250.891830 269.723755,260.511597 269.723755,270.088104 
	C263.597931,271.693054 258.936646,270.513519 255.212616,265.726440 
	C252.459015,262.186768 249.351562,258.922363 246.067932,254.965271 
	C244.723633,253.442398 243.713150,252.489578 241.853638,250.736145 
	C241.853638,257.097687 241.853638,262.315826 241.853638,268.081543 
	C238.534210,268.081543 235.743195,268.081543 232.952164,268.081543 
z"/>
<path fill="#60E2E7" opacity="1.000000" stroke="none" 
	d="
M188.951050,268.070923 
	C188.433868,266.882721 187.200012,265.450073 187.509109,264.543610 
	C191.040253,254.188278 194.732574,243.885101 198.611954,233.655258 
	C199.051651,232.495804 200.916824,231.086502 202.087173,231.116425 
	C214.282440,231.428375 213.061707,228.003265 217.978333,240.850998 
	C221.692703,250.557053 225.026901,260.408600 228.643433,270.511444 
	C222.828903,270.665070 217.224808,272.166931 213.289108,265.763489 
	C213.003036,264.911011 213.029449,264.683289 212.930679,264.593964 
	C209.561646,261.545990 201.423996,262.554810 198.954117,266.144592 
	C198.342194,267.033936 197.009201,267.780579 195.922867,267.916901 
	C193.628616,268.204803 191.278336,268.046295 188.951050,268.070923 
M203.117828,252.628738 
	C204.597641,256.622192 207.322815,254.593658 210.440979,254.317474 
	C209.078491,250.184937 207.876633,246.539566 206.303360,241.767685 
	C205.066177,245.861877 204.163986,248.847458 203.117828,252.628738 
z"/>
<path fill="#61E2E7" opacity="1.000000" stroke="none" 
	d="
M117.895264,252.348083 
	C113.242775,249.534393 110.691887,245.663757 111.707428,240.010361 
	C112.762779,234.135376 117.176262,232.149704 122.250488,231.017517 
	C132.171616,228.803894 139.787094,231.360489 144.104858,239.011215 
	C143.431305,240.817001 142.774734,242.695694 141.934418,242.781815 
	C138.374878,243.146667 134.563309,243.692581 131.735199,239.832428 
	C130.104111,239.323715 128.648804,238.853760 127.292480,239.054062 
	C126.223000,239.212006 125.275391,240.195206 124.273651,240.811859 
	C125.115166,241.613663 125.956680,242.415466 127.085114,243.457596 
	C131.802185,244.906708 136.232346,246.115494 140.662491,247.324280 
	C142.103790,248.967865 143.545074,250.611450 145.041077,253.013397 
	C145.014420,263.705811 141.953461,267.558899 132.288071,267.940460 
	C126.875175,268.154144 121.398338,266.747772 115.950310,266.071350 
	C112.624519,263.471619 110.485779,260.338531 111.400703,255.116074 
	C113.605888,255.116074 115.862663,255.116074 118.821335,255.306290 
	C120.439346,256.110474 121.285141,256.897369 122.285507,257.304169 
	C124.735481,258.300446 127.208878,259.355225 129.776352,259.881348 
	C130.634659,260.057251 131.806702,258.702057 132.835327,258.046753 
	C132.028793,257.141113 131.376434,255.712143 130.388779,255.421112 
	C126.279274,254.210144 122.068733,253.341995 117.895264,252.348083 
z"/>
<path fill="#60E2E7" opacity="1.000000" stroke="none" 
	d="
M340.018311,240.831497 
	C339.113434,237.849884 338.208557,234.868286 337.037018,231.008041 
	C349.641266,231.008041 360.731384,230.819321 371.797668,231.247681 
	C373.175293,231.300995 374.815308,234.471466 375.611206,236.483383 
	C376.233490,238.056412 375.735870,240.072464 375.735870,242.773849 
	C373.103180,242.773849 370.691467,242.937927 368.311096,242.734756 
	C364.877838,242.441742 363.583923,243.701248 363.684906,247.248795 
	C363.901428,254.852859 363.751282,262.467377 363.751282,270.499512 
	C359.464539,270.097931 355.178925,272.693542 352.191528,268.183533 
	C351.318390,266.865417 350.236542,265.344635 350.183777,263.883026 
	C349.955902,257.574890 350.074554,251.254257 350.056244,244.057465 
	C349.275757,242.176239 348.565125,240.385773 347.725403,240.323013 
	C345.183228,240.133057 342.591034,240.612747 340.018311,240.831497 
z"/>
<path fill="#5EE1E6" opacity="1.000000" stroke="none" 
	d="
M162.917130,268.126556 
	C162.017960,266.932281 160.389664,265.766632 160.341415,264.538910 
	C160.084778,258.005737 160.223969,251.457047 160.425598,244.180023 
	C159.803162,242.348938 159.068970,240.415726 158.142105,240.318436 
	C155.812057,240.073898 153.394974,240.658600 151.012787,240.910843 
	C145.446533,239.079300 149.350708,234.793549 147.980759,231.100159 
	C160.046036,231.100159 171.473785,231.079254 182.900482,231.178680 
	C183.345383,231.182541 183.780273,232.339371 184.201462,233.827957 
	C184.041626,236.310715 183.900146,237.924484 183.738113,239.772614 
	C182.162521,239.904404 180.872620,240.082977 179.579681,240.108749 
	C172.087646,240.258118 172.086945,240.245926 172.086182,247.816422 
	C172.085526,254.401459 172.086060,260.986481 172.086060,268.126556 
	C168.509583,268.126556 165.713348,268.126556 162.917130,268.126556 
z"/>
<path fill="#60E2E7" opacity="1.000000" stroke="none" 
	d="
M320.362610,238.121033 
	C320.363037,235.674698 320.363037,233.710754 320.363037,231.010605 
	C324.024384,231.010605 327.443024,230.395111 330.445404,231.246841 
	C332.181061,231.739243 333.431488,234.492371 334.528595,236.437668 
	C335.027374,237.321991 334.630066,238.714661 334.630219,239.876740 
	C334.631653,249.962509 334.631073,260.048279 334.631073,270.542450 
	C330.000458,270.113159 325.389526,272.724335 322.133423,268.071991 
	C321.302399,266.884613 320.465118,265.377899 320.439972,264.003082 
	C320.285126,255.538895 320.362213,247.070450 320.362610,238.121033 
z"/>
<path fill="#BCF3F5" opacity="1.000000" stroke="none" 
	d="
M162.964371,268.531982 
	C165.713348,268.126556 168.509583,268.126556 172.086060,268.126556 
	C172.086060,260.986481 172.085526,254.401459 172.086182,247.816422 
	C172.086945,240.245926 172.087646,240.258118 179.579681,240.108749 
	C180.872620,240.082977 182.162521,239.904404 183.738113,239.772614 
	C183.900146,237.924484 184.041626,236.310715 184.285461,234.245239 
	C189.788254,235.777420 185.664902,240.031082 187.403564,243.946564 
	C184.041168,243.946564 181.456711,244.100845 178.898636,243.906921 
	C175.805679,243.672455 174.870193,244.973068 174.931976,247.950562 
	C175.086044,255.374771 174.982727,262.804321 174.982727,271.039093 
	C170.642120,269.971191 166.394440,273.318268 162.964371,268.531982 
z"/>
<path fill="#60E2E7" opacity="1.000000" stroke="none" 
	d="
M389.780518,258.010498 
	C390.767609,262.224579 391.579376,266.056641 392.552917,270.652405 
	C387.446777,270.086151 382.809540,272.877106 380.384003,268.064789 
	C379.013214,265.345184 378.861542,261.868500 378.865417,258.733673 
	C378.866089,258.187195 382.343811,257.385101 384.267029,257.177826 
	C386.009979,256.989960 387.823029,257.452606 389.780518,258.010498 
z"/>
<path fill="#BCF3F5" opacity="1.000000" stroke="none" 
	d="
M116.030945,266.408264 
	C121.398338,266.747772 126.875175,268.154144 132.288071,267.940460 
	C141.953461,267.558899 145.014420,263.705811 145.150513,253.326675 
	C149.431610,256.843842 148.745651,264.700073 143.848099,268.424744 
	C136.786377,273.795349 122.880463,272.953278 116.030945,266.408264 
z"/>
<path fill="#C3F4F6" opacity="1.000000" stroke="none" 
	d="
M233.005447,268.484741 
	C235.743195,268.081543 238.534210,268.081543 241.853638,268.081543 
	C241.853638,262.315826 241.853638,257.097687 241.853638,250.736145 
	C243.713150,252.489578 244.723633,253.442398 245.861404,254.705704 
	C245.648163,258.018738 245.076141,261.016510 245.013458,264.024872 
	C244.866318,271.087524 244.960052,271.208984 237.719467,270.912811 
	C236.140915,270.848206 234.611023,269.594177 233.005447,268.484741 
z"/>
<path fill="#BCF3F5" opacity="1.000000" stroke="none" 
	d="
M189.001282,268.478333 
	C191.278336,268.046295 193.628616,268.204803 195.922867,267.916901 
	C197.009201,267.780579 198.342194,267.033936 198.954117,266.144592 
	C201.423996,262.554810 209.561646,261.545990 212.930679,264.593964 
	C213.029449,264.683289 213.003036,264.911011 213.075348,265.481354 
	C210.785522,265.924561 208.388977,265.640076 206.147400,266.104156 
	C204.530228,266.439026 202.667053,267.433411 201.706711,268.723846 
	C199.422882,271.792725 191.663666,272.079193 189.001282,268.478333 
z"/>
<path fill="#D5F7F9" opacity="1.000000" stroke="none" 
	d="
M131.953659,240.160233 
	C134.563309,243.692581 138.374878,243.146667 141.934418,242.781815 
	C142.774734,242.695694 143.431305,240.817001 144.246674,239.337646 
	C145.191696,240.661819 146.062424,242.411285 146.933167,244.160736 
	C145.027206,244.994766 143.121246,245.828796 140.938889,246.993561 
	C136.232346,246.115494 131.802185,244.906708 127.288361,243.161224 
	C128.787674,241.803085 130.370667,240.981659 131.953659,240.160233 
z"/>
<path fill="#D5F7F9" opacity="1.000000" stroke="none" 
	d="
M117.953278,252.633179 
	C122.068733,253.341995 126.279274,254.210144 130.388779,255.421112 
	C131.376434,255.712143 132.028793,257.141113 132.835327,258.046753 
	C131.806702,258.702057 130.634659,260.057251 129.776352,259.881348 
	C127.208878,259.355225 124.735481,258.300446 122.285507,257.304169 
	C121.285141,256.897369 120.439346,256.110474 119.264938,255.272919 
	C118.674866,254.338974 118.343071,253.628616 117.953278,252.633179 
z"/>
<path fill="#C3F4F6" opacity="1.000000" stroke="none" 
	d="
M340.035583,241.252045 
	C342.591034,240.612747 345.183228,240.133057 347.725403,240.323013 
	C348.565125,240.385773 349.275757,242.176239 350.019958,243.590179 
	C347.689636,243.987991 345.347290,244.210144 343.095978,243.855026 
	C341.994263,243.681244 341.061890,242.433990 340.035583,241.252045 
z"/>
<path fill="#BCF3F5" opacity="1.000000" stroke="none" 
	d="
M151.021881,241.325958 
	C153.394974,240.658600 155.812057,240.073898 158.142105,240.318436 
	C159.068970,240.415726 159.803162,242.348938 160.410339,243.710052 
	C158.123306,243.962646 156.009369,244.191986 153.995499,243.843323 
	C152.918289,243.656830 152.013550,242.474152 151.021881,241.325958 
z"/>
<path fill="#D5F7F9" opacity="1.000000" stroke="none" 
	d="
M203.189819,252.230896 
	C204.163986,248.847458 205.066177,245.861877 206.303360,241.767685 
	C207.876633,246.539566 209.078491,250.184937 210.440979,254.317474 
	C207.322815,254.593658 204.597641,256.622192 203.189819,252.230896 
z"/>
<path fill="#BCF3F5" opacity="1.000000" stroke="none" 
	d="
M131.735199,239.832428 
	C130.370667,240.981659 128.787674,241.803085 127.001434,242.920898 
	C125.956680,242.415466 125.115166,241.613663 124.273651,240.811859 
	C125.275391,240.195206 126.223000,239.212006 127.292480,239.054062 
	C128.648804,238.853760 130.104111,239.323715 131.735199,239.832428 
z"/>
</svg>